<?xml version="1.0" encoding="UTF-8" standalone="no"?>
<svg
   xmlns:dc="http://purl.org/dc/elements/1.1/"
   xmlns:cc="http://creativecommons.org/ns#"
   xmlns:rdf="http://www.w3.org/1999/02/22-rdf-syntax-ns#"
   xmlns:svg="http://www.w3.org/2000/svg"
   xmlns="http://www.w3.org/2000/svg"
   width="291.37598mm"
   height="110.14581mm"
   viewBox="0 0 291.37598 110.14581"
   version="1.1"
   id="svg8">
  <defs
     id="defs2" />
  <metadata
     id="metadata5">
    <rdf:RDF>
      <cc:Work
         rdf:about="">
        <dc:format>image/svg+xml</dc:format>
        <dc:type
           rdf:resource="http://purl.org/dc/dcmitype/StillImage" />
        <dc:title></dc:title>
      </cc:Work>
    </rdf:RDF>
  </metadata>
  <g
     id="layer1"
     transform="translate(-55.610146,-84.722748)">
    <path
       id="path2429"
       style="fill:#353564;fill-opacity:1;fill-rule:evenodd;stroke:none;stroke-linejoin:round"
       d="m 63.610146,156.41623 v 36.45233 l 28.465392,-1.92821 -10.205357,-26.62113 z" />
    <path
       id="path2433"
       style="fill:#4d4d9f;fill-opacity:1;fill-rule:evenodd;stroke:none;stroke-linejoin:round"
       d="m 64.27832,155.21352 54.38935,-68.490772 21.04888,25.992902 -55.578512,41.39822 z" />
    <path
       id="path2435"
       style="fill:#3f70c3;fill-opacity:1;fill-rule:evenodd;stroke:none;stroke-linejoin:round"
       d="m 63.610146,192.86856 55.057524,-28.43424 20.6709,13.25067 -47.263032,13.25536 z" />
    <path
       id="path2437"
       style="fill:#538ae0;fill-opacity:1;fill-rule:evenodd;stroke:none;stroke-linejoin:round"
       d="m 118.66767,86.722748 0.80181,76.575672 25.53874,-1.11045 -5.29167,-49.47232 z" />
    <path
       id="path2439"
       style="fill:#6286bf;fill-opacity:1;fill-rule:evenodd;stroke:none;stroke-linejoin:round"
       d="m 118.66767,86.722748 c -79.11178,140.184832 -39.55589,70.092422 0,0 z" />
    <text
       xml:space="preserve"
       style="font-style:normal;font-weight:normal;font-size:10.58333302px;line-height:1.25;font-family:sans-serif;letter-spacing:0px;word-spacing:0px;fill:#000000;fill-opacity:1;stroke:none;stroke-width:0.26458332"
       x="162.90776"
       y="123.24207"
       id="text989"><tspan
         id="tspan987"
         x="162.90776"
         y="132.60583"
         style="stroke-width:0.26458332" /></text>
    <text
       xml:space="preserve"
       style="font-style:normal;font-weight:normal;font-size:10.58333302px;line-height:1.25;font-family:sans-serif;letter-spacing:0px;word-spacing:0px;fill:#000000;fill-opacity:1;stroke:none;stroke-width:0.26458332"
       x="164.04169"
       y="129.10071"
       id="text993"><tspan
         id="tspan991"
         x="164.04169"
         y="138.46448"
         style="stroke-width:0.26458332" /></text>
    <g
       id="flowRoot995"
       style="font-style:normal;font-weight:normal;font-size:40px;line-height:1.25;font-family:sans-serif;letter-spacing:0px;word-spacing:0px;fill:#000000;fill-opacity:1;stroke:none"
       transform="matrix(0.26458333,0,0,0.26458333,50.459848,80.224833)"
       aria-label="Conduit">
      <path
         d="m 1064.669,314.25225 q -12.864,0 -19.776,-7.2 -6.816,-7.296 -6.816,-20.064 v -55.008 h -10.08 q -1.92,0 -3.264,-1.248 -1.344,-1.248 -1.344,-3.744 v -9.408 l 15.84,-2.592 4.992,-26.88 q 0.48,-1.92 1.824,-2.976 1.344,-1.056 3.456,-1.056 h 12.288 v 31.008 h 26.304 v 16.896 h -26.304 v 53.376 q 0,4.608 2.208,7.2 2.304,2.592 6.24,2.592 2.208,0 3.648,-0.48 1.536,-0.576 2.592,-1.152 1.152,-0.576 2.016,-1.056 0.864,-0.576 1.728,-0.576 1.056,0 1.728,0.576 0.672,0.48 1.44,1.536 l 7.104,11.52 q -5.184,4.32 -11.904,6.528 -6.72,2.208 -13.92,2.208 z m -57.006,-100.032 v 98.496 h -23.808 v -98.496 z m 3.264,-28.704 q 0,3.072 -1.248,5.76 -1.248,2.688 -3.36,4.704 -2.016,2.016 -4.8,3.264 -2.784,1.152 -5.952,1.152 -3.072,0 -5.856,-1.152 -2.688,-1.248 -4.704,-3.264 -2.016,-2.016 -3.264,-4.704 -1.152,-2.688 -1.152,-5.76 0,-3.168 1.152,-5.952 1.248,-2.784 3.264,-4.8 2.016,-2.016 4.704,-3.168 2.784,-1.248 5.856,-1.248 3.168,0 5.952,1.248 2.784,1.152 4.8,3.168 2.112,2.016 3.36,4.8 1.248,2.784 1.248,5.952 z m -113.463,28.704 v 62.592 q 0,9.024 4.128,14.016 4.224,4.896 12.576,4.896 6.144,0 11.52,-2.688 5.376,-2.784 10.176,-7.584 v -71.232 h 23.712 v 98.496 H 945.08 q -4.704,0 -5.952,-4.32 l -1.632,-7.872 q -3.072,3.072 -6.336,5.664 -3.264,2.496 -7.008,4.32 -3.744,1.824 -7.968,2.784 -4.224,0.96 -9.216,0.96 -8.064,0 -14.304,-2.688 -6.144,-2.784 -10.368,-7.776 -4.224,-4.992 -6.432,-11.808 -2.112,-6.912 -2.112,-15.168 v -62.592 z m -60.837,98.496 q -4.704,0 -5.952,-4.32 l -2.016,-9.504 q -3.072,3.456 -6.432,6.24 -3.36,2.784 -7.296,4.8 -3.84,2.016 -8.352,3.072 -4.416,1.152 -9.6,1.152 -8.064,0 -14.784,-3.36 -6.72,-3.36 -11.616,-9.696 -4.8,-6.432 -7.488,-15.84 -2.592,-9.408 -2.592,-21.504 0,-10.944 2.976,-20.352 2.976,-9.408 8.544,-16.32 5.568,-6.912 13.344,-10.752 7.776,-3.936 17.472,-3.936 8.256,0 14.112,2.688 5.856,2.592 10.464,7.008 v -52.032 h 23.712 v 142.656 z m -31.584,-17.376 q 7.392,0 12.576,-3.072 5.184,-3.072 9.792,-8.736 v -44.16 q -4.032,-4.896 -8.832,-6.912 -4.704,-2.016 -10.176,-2.016 -5.376,0 -9.696,2.016 -4.32,2.016 -7.392,6.144 -3.072,4.032 -4.704,10.368 -1.632,6.24 -1.632,14.784 0,8.64 1.344,14.688 1.44,5.952 4.032,9.792 2.592,3.744 6.336,5.472 3.744,1.632 8.352,1.632 z m -147.831,17.376 v -98.496 h 14.496 q 4.608,0 6.048,4.32 l 1.632,7.776 q 2.976,-3.072 6.24,-5.568 3.36,-2.496 7.008,-4.32 3.744,-1.824 7.968,-2.784 4.224,-0.96 9.216,-0.96 8.064,0 14.304,2.784 6.24,2.688 10.368,7.68 4.224,4.896 6.336,11.808 2.208,6.816 2.208,15.072 v 62.688 h -23.712 v -62.688 q 0,-9.024 -4.128,-13.92 -4.128,-4.992 -12.576,-4.992 -6.144,0 -11.52,2.784 -5.376,2.784 -10.176,7.584 v 71.232 z m -66.666,-100.032 q 10.944,0 19.872,3.552 9.024,3.552 15.36,10.08 6.432,6.528 9.888,15.936 3.456,9.408 3.456,21.024 0,11.712 -3.456,21.12 -3.456,9.408 -9.888,16.032 -6.336,6.624 -15.36,10.176 -8.928,3.552 -19.872,3.552 -11.04,0 -20.064,-3.552 -9.024,-3.552 -15.456,-10.176 -6.336,-6.624 -9.888,-16.032 -3.456,-9.408 -3.456,-21.12 0,-11.616 3.456,-21.024 3.552,-9.408 9.888,-15.936 6.432,-6.528 15.456,-10.08 9.024,-3.552 20.064,-3.552 z m 0,83.232 q 12.288,0 18.144,-8.256 5.952,-8.256 5.952,-24.192 0,-15.936 -5.952,-24.288 -5.856,-8.352 -18.144,-8.352 -12.48,0 -18.528,8.448 -5.952,8.352 -5.952,24.192 0,15.84 5.952,24.192 6.048,8.256 18.528,8.256 z m -69.762,-15.936 q 2.112,0 3.744,1.632 l 10.176,11.04 q -8.448,10.464 -20.832,16.032 -12.288,5.568 -29.568,5.568 -15.456,0 -27.84,-5.28 -12.288,-5.28 -21.024,-14.688 -8.736,-9.408 -13.44,-22.464 -4.608,-13.056 -4.608,-28.512 0,-15.648 4.992,-28.608 4.992,-13.056 14.016,-22.464 9.12,-9.408 21.696,-14.592 12.576,-5.28 27.84,-5.28 15.168,0 26.88,4.992 11.808,4.992 20.064,13.056 l -8.64,12 q -0.768,1.152 -2.016,2.016 -1.152,0.864 -3.264,0.864 -1.44,0 -2.976,-0.768 -1.536,-0.864 -3.36,-2.016 -1.824,-1.248 -4.224,-2.688 -2.4,-1.44 -5.568,-2.592 -3.168,-1.248 -7.392,-2.016 -4.128,-0.864 -9.6,-0.864 -9.312,0 -17.088,3.36 -7.68,3.264 -13.248,9.6 -5.568,6.24 -8.64,15.36 -3.072,9.024 -3.072,20.64 0,11.712 3.264,20.832 3.36,9.12 9.024,15.36 5.664,6.24 13.344,9.6 7.68,3.264 16.512,3.264 5.28,0 9.504,-0.576 4.32,-0.576 7.872,-1.824 3.648,-1.248 6.816,-3.168 3.264,-2.016 6.432,-4.896 0.96,-0.864 2.016,-1.344 1.056,-0.576 2.208,-0.576 z"
         style="font-style:normal;font-variant:normal;font-weight:bold;font-stretch:normal;font-size:192px;font-family:Lato;-inkscape-font-specification:'Lato, Bold';font-variant-ligatures:normal;font-variant-caps:normal;font-variant-numeric:normal;font-feature-settings:normal;text-align:start;writing-mode:lr-tb;text-anchor:start"
         id="path4541" />
    </g>
  </g>
</svg>
